<?xml version="1.0" standalone="no"?>
<!DOCTYPE svg PUBLIC "-//W3C//DTD SVG 20010904//EN"
 "http://www.w3.org/TR/2001/REC-SVG-20010904/DTD/svg10.dtd">
<svg version="1.0" xmlns="http://www.w3.org/2000/svg"
 width="700.000000pt" height="700.000000pt" viewBox="0 0 700.000000 700.000000"
 preserveAspectRatio="xMidYMid meet">
<metadata>
Created by potrace 1.14, written by Peter Selinger 2001-2017
</metadata>
<g transform="translate(0.000000,700.000000) scale(0.100000,-0.100000)"
fill="#000000" stroke="none">
<path d="M1279 6314 c-22 -24 -24 -34 -25 -132 -2 -241 85 -601 220 -909 77
-175 135 -259 203 -298 148 -83 621 -257 1278 -470 182 -58 357 -116 390 -127
33 -11 65 -21 70 -22 19 -4 220 -68 275 -87 65 -23 43 -20 -150 21 -80 16
-190 39 -245 51 -55 11 -107 22 -115 24 -8 1 -94 20 -190 40 -96 20 -182 38
-190 40 -8 1 -91 20 -185 40 -93 21 -188 41 -210 45 -87 18 -436 101 -543 129
-131 35 -239 38 -269 9 -24 -25 -21 -76 10 -188 86 -311 260 -587 482 -766 89
-72 171 -110 258 -120 28 -3 63 -7 77 -10 54 -9 506 -18 907 -18 232 0 420 -2
419 -4 -4 -4 -36 -9 -96 -16 -25 -3 -61 -8 -80 -11 -19 -2 -53 -6 -75 -9 -22
-2 -92 -11 -155 -20 -63 -9 -133 -18 -155 -21 -22 -2 -71 -9 -110 -14 -38 -5
-95 -13 -125 -16 -30 -4 -57 -8 -60 -10 -3 -2 -35 -6 -70 -10 -36 -3 -72 -8
-80 -10 -8 -2 -35 -7 -60 -10 -25 -3 -56 -8 -70 -10 -14 -3 -36 -7 -50 -10
-118 -22 -184 -50 -195 -84 -9 -28 2 -86 24 -129 94 -185 457 -480 703 -571
130 -49 291 -61 369 -29 82 35 599 181 599 169 0 -3 -7 -33 -15 -67 -8 -34
-16 -72 -19 -85 -3 -13 -32 -136 -66 -274 -33 -137 -69 -284 -79 -325 l-18
-75 287 -5 c248 -4 287 -7 284 -20 -3 -17 -32 -135 -98 -395 -26 -99 -49 -191
-52 -205 -2 -14 -7 -33 -10 -42 -3 -9 -7 -25 -9 -35 -2 -10 -29 -117 -60 -238
-31 -121 -59 -230 -61 -242 -2 -12 -9 -34 -14 -48 -5 -14 -6 -25 -2 -24 4 0
104 129 222 287 118 158 217 289 220 292 3 3 66 86 141 185 74 99 218 290 319
424 423 559 487 646 480 651 -5 3 -166 5 -359 4 -253 0 -351 3 -351 11 0 6 13
31 28 56 15 24 47 79 70 121 24 42 46 78 50 80 10 4 298 484 452 753 149 262
297 551 326 640 59 182 -12 340 -213 474 -187 126 -395 212 -1078 446 -466
160 -734 259 -1095 403 -174 70 -568 232 -625 257 -16 8 -122 53 -235 100
-175 74 -391 167 -545 235 -22 10 -157 70 -301 134 -284 127 -313 134 -355 90z
m2508 -2750 c-3 -3 -12 -4 -19 -1 -8 3 -5 6 6 6 11 1 17 -2 13 -5z"/>
</g>
</svg>
